<svg width="800" height="450" viewBox="0 0 800 450" fill="none" xmlns="http://www.w3.org/2000/svg">
<circle cx="400" cy="160" r="69" fill="#1A1A1A"/>
<circle cx="268" cy="283" r="30" fill="#1A1A1A"/>
<circle cx="400" cy="283" r="30" fill="#1A1A1A"/>
<circle cx="532" cy="283" r="30" fill="#1A1A1A"/>
<circle cx="268" cy="348" r="11" fill="#1A1A1A"/>
<circle cx="400" cy="348" r="11" fill="#1A1A1A"/>
<circle cx="532" cy="348" r="11" fill="#1A1A1A"/>
<circle cx="230" cy="348" r="11" fill="#1A1A1A"/>
<circle cx="362" cy="348" r="11" fill="#1A1A1A"/>
<circle cx="494" cy="348" r="11" fill="#1A1A1A"/>
<circle cx="306" cy="348" r="11" fill="#1A1A1A"/>
<circle cx="438" cy="348" r="11" fill="#1A1A1A"/>
<circle cx="570" cy="348" r="11" fill="#1A1A1A"/>
<path d="M400 220.5V348" stroke="#1A1A1A" stroke-width="4"/>
<path d="M532 330V240H267V324.737" stroke="#1A1A1A" stroke-width="4"/>
<path d="M532 337.5V324H267.5V340.5" stroke="#1A1A1A" stroke-width="4"/>
<path d="M570 337.091V324H230V340" stroke="#1A1A1A" stroke-width="4"/>
<path d="M305.5 343.5V324" stroke="#1A1A1A" stroke-width="4"/>
<path d="M362 343.5V324" stroke="#1A1A1A" stroke-width="4"/>
<path d="M438 343.5V324" stroke="#1A1A1A" stroke-width="4"/>
<path d="M494 343.5V324" stroke="#1A1A1A" stroke-width="4"/>
</svg>
