<svg width="800" height="450" viewBox="0 0 800 450" fill="none" xmlns="http://www.w3.org/2000/svg">
<circle cx="400" cy="225" r="30" fill="#1A1A1A"/>
<path d="M400 168L400 286" stroke="#1A1A1A" stroke-width="4"/>
<path d="M341 225H459" stroke="#1A1A1A" stroke-width="4"/>
<path d="M402 225L356 179" stroke="#1A1A1A" stroke-width="4"/>
<path d="M402 225L447 180" stroke="#1A1A1A" stroke-width="4"/>
<path d="M402 225L445 268" stroke="#1A1A1A" stroke-width="4"/>
<path d="M402 225L357 270" stroke="#1A1A1A" stroke-width="4"/>
<circle cx="400" cy="282" r="11" fill="#1A1A1A"/>
<circle cx="400" cy="168" r="11" fill="#1A1A1A"/>
<circle cx="356" cy="179" r="11" fill="#1A1A1A"/>
<circle cx="356" cy="269" r="11" fill="#1A1A1A"/>
<circle cx="446" cy="269" r="11" fill="#1A1A1A"/>
<circle cx="446" cy="179" r="11" fill="#1A1A1A"/>
<circle cx="457" cy="225" r="11" fill="#1A1A1A"/>
<circle cx="343" cy="225" r="11" fill="#1A1A1A"/>
<circle cx="400" cy="322" r="10" stroke="#1A1A1A" stroke-width="2"/>
<circle cx="400" cy="370" r="10" stroke="#1A1A1A" stroke-width="2"/>
<circle cx="400" cy="128" r="10" stroke="#1A1A1A" stroke-width="2"/>
<circle cx="400" cy="80" r="10" stroke="#1A1A1A" stroke-width="2"/>
<circle cx="332" cy="155" r="10" stroke="#1A1A1A" stroke-width="2"/>
<circle cx="300" cy="123" r="10" stroke="#1A1A1A" stroke-width="2"/>
<circle cx="332" cy="293" r="10" stroke="#1A1A1A" stroke-width="2"/>
<circle cx="300" cy="325" r="10" stroke="#1A1A1A" stroke-width="2"/>
<circle cx="470" cy="293" r="10" stroke="#1A1A1A" stroke-width="2"/>
<circle cx="502" cy="325" r="10" stroke="#1A1A1A" stroke-width="2"/>
<circle cx="470" cy="155" r="10" stroke="#1A1A1A" stroke-width="2"/>
<circle cx="502" cy="123" r="10" stroke="#1A1A1A" stroke-width="2"/>
<circle cx="497" cy="225" r="10" stroke="#1A1A1A" stroke-width="2"/>
<circle cx="545" cy="225" r="10" stroke="#1A1A1A" stroke-width="2"/>
<circle cx="303" cy="225" r="10" stroke="#1A1A1A" stroke-width="2"/>
<circle cx="255" cy="225" r="10" stroke="#1A1A1A" stroke-width="2"/>
</svg>
