<svg width="800" height="450" viewBox="0 0 800 450" fill="none" xmlns="http://www.w3.org/2000/svg">
<path fill-rule="evenodd" clip-rule="evenodd" d="M400 393C492.784 393 568 317.784 568 225C568 132.216 492.784 57 400 57C307.216 57 232 132.216 232 225C232 317.784 307.216 393 400 393ZM400 369C479.529 369 544 304.529 544 225C544 145.471 479.529 81 400 81C320.471 81 256 145.471 256 225C256 304.529 320.471 369 400 369Z" fill="#1A1A1A"/>
<path fill-rule="evenodd" clip-rule="evenodd" d="M400 353C470.692 353 528 295.692 528 225C528 154.308 470.692 97 400 97C329.308 97 272 154.308 272 225C272 295.692 329.308 353 400 353ZM400 337C461.856 337 512 286.856 512 225C512 163.144 461.856 113 400 113C338.144 113 288 163.144 288 225C288 286.856 338.144 337 400 337Z" fill="#1A1A1A"/>
<path fill-rule="evenodd" clip-rule="evenodd" d="M400 316C450.258 316 491 275.258 491 225C491 174.742 450.258 134 400 134C349.742 134 309 174.742 309 225C309 275.258 349.742 316 400 316ZM400 304.625C443.976 304.625 479.625 268.976 479.625 225C479.625 181.024 443.976 145.375 400 145.375C356.024 145.375 320.375 181.024 320.375 225C320.375 268.976 356.024 304.625 400 304.625Z" fill="#1A1A1A"/>
<circle cx="30" cy="30" r="30" transform="matrix(-1 0 0 1 430 195)" fill="#1A1A1A"/>
</svg>
