<svg width="800" height="450" viewBox="0 0 800 450" fill="none" xmlns="http://www.w3.org/2000/svg">
<path fill-rule="evenodd" clip-rule="evenodd" d="M521 117.369C490.183 80.4732 443.833 57 392 57C299.216 57 224 132.216 224 225C224 317.784 299.216 393 392 393C443.833 393 490.183 369.527 521 332.631V326.278C490.973 364.471 444.351 389 392 389C301.425 389 228 315.575 228 225C228 134.425 301.425 61 392 61C444.351 61 490.973 85.5293 521 123.722V117.369Z" fill="#5A5A5A"/>
<path fill-rule="evenodd" clip-rule="evenodd" d="M529 332.631C553.348 303.48 568 265.951 568 225C568 184.049 553.348 146.52 529 117.369V332.631Z" fill="#1A1A1A"/>
</svg>
