<svg width="800" height="450" viewBox="0 0 800 450" fill="none" xmlns="http://www.w3.org/2000/svg">
<circle cx="297" cy="225" r="166" stroke="#1A1A1A" stroke-width="4"/>
<circle cx="504" cy="225" r="166" stroke="#1A1A1A" stroke-width="4"/>
<mask id="path-3-inside-1_37_3349" fill="white">
<path fill-rule="evenodd" clip-rule="evenodd" d="M400.5 357.341C439.766 326.589 465 278.742 465 225C465 171.258 439.766 123.411 400.5 92.6587C361.234 123.411 336 171.258 336 225C336 278.742 361.234 326.589 400.5 357.341Z"/>
</mask>
<path fill-rule="evenodd" clip-rule="evenodd" d="M400.5 357.341C439.766 326.589 465 278.742 465 225C465 171.258 439.766 123.411 400.5 92.6587C361.234 123.411 336 171.258 336 225C336 278.742 361.234 326.589 400.5 357.341Z" fill="#1A1A1A"/>
<path d="M400.5 357.341L398.034 360.49L400.5 362.422L402.966 360.49L400.5 357.341ZM400.5 92.6587L402.966 89.5095L400.5 87.5779L398.034 89.5095L400.5 92.6587ZM461 225C461 277.46 436.373 324.166 398.034 354.192L402.966 360.49C443.159 329.013 469 280.023 469 225H461ZM398.034 95.8078C436.373 125.834 461 172.54 461 225H469C469 169.977 443.159 120.987 402.966 89.5095L398.034 95.8078ZM340 225C340 172.54 364.627 125.834 402.966 95.8078L398.034 89.5095C357.841 120.987 332 169.977 332 225H340ZM402.966 354.192C364.627 324.166 340 277.46 340 225H332C332 280.023 357.841 329.013 398.034 360.49L402.966 354.192Z" fill="#1A1A1A" mask="url(#path-3-inside-1_37_3349)"/>
</svg>
